<?xml version="1.0" standalone="no"?> 
<!DOCTYPE svg PUBLIC "-//W3C//DTD SVG 1.1//EN" "http://www.w3.org/Graphics/SVG/1.1/DTD/svg11.dtd" >
<svg xmlns="http://www.w3.org/2000/svg">
<defs>
  <font id="ag-icons" horiz-adv-x="640">
    <font-face font-family="ag-icons"
      units-per-em="512" ascent="512"
      descent="0" />
    <missing-glyph horiz-adv-x="0" />
    <glyph glyph-name="abapgit"
      unicode="&#xF101;"
      horiz-adv-x="1941.2100617601168" d=" M265.3258226055108 109.5307912956544V150.3465106935633L240.5263981612117 154.4797481009465C236.7950032795463 154.8433199099292 234.4509218795258 155.6613564801405 233.4941539611501 156.9338578115803C232.5278183635906 158.1776561054688 232.1211919982809 160.808767881002 232.2599233464454 164.7793547422613V290.3599278686686C232.5852244386931 325.9038560363273 224.0604222859653 350.5262784157269 206.6855168882619 364.2367626860512C189.2723407738234 377.9520307959674 161.1433639735768 384.4963233576574 122.2029096956843 383.8696403711213C96.7528830668897 384.9125174021508 72.3074627523896 380.3774374690498 48.8188103562652 370.2452652134508C25.3301637007484 360.103525278668 12.7486655741075 338.0978631560261 11.0743217169499 304.2761172414438L83.9321929606548 298.0571257720015C83.9321929606548 313.0305436945818 87.1373654872135 322.6938996701766 93.4520337484934 326.9515169069487C99.814540405692 331.2091341437207 109.1908660057742 333.1226699804722 121.5810105487401 332.6442860212843C137.0328124305082 332.4529324376092 146.7918451979407 328.673699160025 150.9059472469564 321.3544245844506C154.9722109000533 313.9873116129575 156.7422315490484 304.1326020536874 156.168170798023 291.8381343025592V263.4221271267998L96.7528830668897 259.2601866818653C64.4619658217085 257.3466508451138 40.2748728451699 250.0273762695395 24.2298805946163 237.3023629551422C8.1561795659039 224.5295112448261 0.1193290037093 205.3463144813925 0.1193290037093 179.7049342689229C-0.8039525159072 162.4831117381596 3.6306672641483 145.7396731665842 13.4184031169705 129.4267801582778C23.2252742803218 113.1138871499715 43.939293972549 104.4072990927523 75.5604736748671 103.2113391947826C96.0353071281079 103.4505311743765 113.2092912629523 106.8470572846105 127.0824260794005 113.3530791295655C140.9746962542162 119.8591009745205 152.7238062918703 128.039466676633 162.3393238715465 137.8463378399844L164.9225972511609 137.3201154848777L170.0891440103899 109.4303306642249zM156.3164698253712 177.7292085174769C150.2553450624609 173.112803311314 143.1274240705617 168.9125921496445 134.9327068496735 165.1333588720604C126.7523411475609 161.3541255944761 118.1988359572818 159.3544806450709 109.2913266372037 159.1296401842526C100.6134416175358 159.0196118736394 93.5716297382904 161.1723396899848 88.1802425182431 165.5878236332888C82.7888552981958 169.9985237370009 80.0094444953143 177.3177983125753 79.8563616283742 187.545647360012C79.665008044699 197.7256580115298 82.7458007418689 205.1310416997581 89.0891720407001 209.7617984246966C95.4229756603474 214.3877713100433 106.1196409877882 217.1432629149654 121.1791680230223 218.028273239463L156.3116859857793 220.6115466190775zM376.7414467003654 109.5307912956544L380.3580294318257 135.3635250917993L382.9413028114402 135.8801797677222C390.9781533257964 126.6138824782532 401.3782205985406 118.9262522541042 414.1319369504892 112.822072934867C426.8856533024378 106.7226774552216 441.8064489895074 103.5557756453979 458.8847563325143 103.3309351845797C491.2091461033198 102.8525512253918 517.2380173227317 114.2667924916144 536.9665717996394 137.5593074644717C556.6951262765471 160.8087678810021 566.832082371738 198.8402926364377 567.3822239248041 251.6060433348595C566.7124863819411 299.1574088781337 557.0730496043055 333.21834677231 538.4495620731218 353.7410186214695C519.83085838153 374.3115288665479 496.2369615143843 384.3097536135743 467.6678858232036 383.8313696543865C452.0247303577603 383.7835312584677 437.8549974866156 381.3916114625283 425.1778225681371 376.6556102665684C412.5006476496585 371.8717706746897 400.6558608201669 364.9830416623844 389.6578135984379 355.8937464378149L387.5911948947462 356.4199687929215V499.6050716174423H281.1603316546292L275.4771302194773 457.7464751885038L303.8931373952367 447.9396040251525C306.4285723789324 447.1598381716763 308.1985930279276 445.8682014818691 309.1553609463033 444.0646939557308C310.112128864679 442.2468349108169 310.5905128238669 439.9266727087558 310.5426744279481 437.0802881515879V184.9719416595812C310.4469976361105 172.1990899492651 309.5859065095724 159.3783998430303 308.0072394442524 146.4811683033253C306.4285723789324 133.5839367636203 304.6585517299373 121.2703336541246 302.7450158931859 109.5403589748381zM388.1078495706692 304.8214749549179C394.4560047090922 309.1939043418951 402.0288227830361 313.2410326366244 410.8406553112767 316.962859839106C419.6429201603334 320.6942547207714 428.770486101638 322.7034673493605 438.2233531351902 322.9426593289544C455.3016604781971 322.3207601820101 467.5961282293254 314.8101320227606 474.9632268492998 300.362936455287C482.330339820793 285.9157408878133 485.918219514702 268.3112111896998 485.7268659310268 247.5493473609463C485.7747043269456 221.4774215852074 481.66060227793 201.0504265278855 473.4323981798986 186.364038980818C465.204208433386 171.6298130378316 452.5748719108263 164.1670232745008 435.592241359657 163.8799928989881C426.4072693432499 164.0713464826633 417.7485196819495 166.0327207153336 409.4724771879994 169.9076307847553C401.1964346940493 173.782540854177 394.0685137021501 178.4707036542182 388.0408758163829 184.0677959767161zM867.7547280592748 109.5307912956544V150.3465106935633L842.9553036149757 154.4797481009465C839.2239087333104 154.8433199099292 836.8702596541061 155.6613564801405 835.9134917357303 156.9338578115803C834.9567238173546 158.1776561054688 834.5740166500043 160.808767881002 834.7175318377606 164.7793547422613V290.3599278686686C835.0524006091921 325.9038560363273 826.537166135648 350.5262784157269 809.1718284171285 364.2367626860512C791.8064906986089 377.9520307959674 763.6296755024433 384.4963233576574 724.6892212245509 383.8696403711213C699.287032991675 384.9125174021508 674.841612677175 380.3774374690498 651.3529602810506 370.2452652134508C627.8643078849262 360.103525278668 615.330648154204 338.0978631560261 613.6563042970465 304.2761172414438L686.5141812813589 298.0571257720015C686.5620196772776 313.0305436945818 689.7193538079175 322.6938996701766 696.0818604651163 326.9515169069487C702.4443671223149 331.2091341437207 711.8206927223971 333.1226699804722 724.2586756612817 332.6442860212843C739.7104775430497 332.4529324376092 749.4695103104824 328.673699160025 753.5836123594979 321.3544245844506C757.6498760125949 313.9873116129575 759.41989666159 304.1326020536874 758.8936743064834 291.8381343025592V263.4221271267998L699.4783865753502 259.2601866818653C667.187469330169 257.3466508451138 643.0290793911817 250.0273762695395 626.9553783624693 237.3023629551422C610.8816773337569 224.5295112448261 602.8448268194007 205.3463144813925 602.873529856952 179.7049342689229C601.9550326553114 162.4831117381596 606.3896519569828 145.7396731665842 616.1726039223747 129.4267801582778C625.979475085726 113.1138871499715 646.6935005185607 104.4072990927523 678.3146802208788 103.2113391947826C698.7895136741196 103.4505311743765 715.9778493277397 106.8470572846105 729.8605518233717 113.3530791295655C743.7623896773712 119.8591009745205 755.5019320358415 128.039466676633 765.1174496155177 137.8463378399844L767.7007229951321 137.3201154848777L772.8672697543611 109.4303306642249zM758.7453752791353 177.7292085174769C752.6794666766331 173.112803311314 745.5563295243256 168.9125921496445 737.3616123034375 165.1333588720604C729.1716789221413 161.3541255944761 720.6277414110459 159.3544806450709 711.7202320909677 159.1296401842526C703.0375632317078 159.0196118736394 696.0005351920544 161.1723396899848 690.609147972007 165.5878236332888C685.2129769123679 169.9985237370009 682.4383499490782 177.3177983125753 682.2756994029544 187.545647360012C682.0939134984629 197.7256580115298 685.169922356041 205.1310416997581 691.5085098152803 209.7617984246966C697.8518811141114 214.3877713100433 708.5485464415523 217.1432629149654 723.6080734767863 218.028273239463L758.7405914395433 220.6115466190775zM1054.5971509992805 0V40.8157193979089L1000.8650647032993 45.4656114812149C997.1336698216338 45.6091266689713 994.7895884216134 46.3601894848962 993.8328205032376 47.7283676081735C992.8760525848618 49.1156810898184 992.4598585403684 51.7946312612704 992.5985898885328 55.8130565184486V129.7233782129743C1003.4913926392406 120.9689517598363 1015.1591774038328 114.3672531230437 1027.6019441823091 109.9661206985153C1040.0877655171125 105.564988273987 1053.004132415185 103.4122604576415 1066.494560064283 103.4122604576415C1094.6713752604483 104.0819980005045 1116.485683799415 112.3102020985359 1131.9853240771022 128.0968727517355C1147.484964354789 143.8835434049352 1158.248603436516 163.0667401683687 1164.276241322283 185.7421398338736C1170.3038792080504 208.4175394993786 1173.2220213590963 230.3753632261018 1172.9349909835837 251.7591262017995C1172.408768628477 299.3104917450736 1163.1281198202323 333.3714296392499 1145.0452061629308 353.9275883655526C1126.9622925056294 374.4980986106309 1103.1866097339923 384.5154587160249 1073.7659962439384 384.0179393984695C1058.7925783213582 383.922262606632 1043.5799684191838 381.004120455586 1028.1281665374158 375.3113513412503C1012.6763646556478 369.5850953497715 998.659714651443 361.6295701084773 985.9825397329646 351.4686948153269L983.39926635335 352.5020041671727L978.7589419492278 378.8370411204649H887.818151307614L882.1732205891972 337.0023638894858L909.584621450662 327.1667896885832C912.1200564343578 326.387023835107 913.8900770833528 325.0953871452997 914.8946833976474 323.2918796191615C915.899289711942 321.4740205742476 916.368105991946 319.1538583721864 916.329835275211 316.3074738150186V55.3968624739551C916.406376708681 51.617629196371 915.7557745241857 48.9865174208377 914.4162994384596 47.4556887514365C913.052905154774 45.939211600811 910.5892277649564 44.9680921636596 907.0491864669664 44.5518981191661L886.3829994300505 41.442402384445V0.1100283106131zM993.6318992403786 303.7881656030721C999.487318900838 307.9501060480066 1007.1510299270278 312.0259373802873 1016.6230323189478 315.9965242415465C1026.0950347108674 319.9671111028058 1036.3420191166715 322.0720005232324 1047.3639855363601 322.3590308987451C1060.495625216067 322.5503844824204 1071.0439915161594 316.7141001803283 1079.0090844366375 304.8501779924692C1086.9741773571157 292.98625580461 1091.0643602081718 273.8508974370953 1091.2796329898065 247.4441028899249C1091.3992289796033 221.8027226774552 1087.548238108141 201.5192428078896 1079.7218765358275 186.593663281228C1071.895514963514 171.6680837545665 1059.390558270343 164.0139404075607 1042.197438777131 163.726910032048C1032.5197312827606 163.9182636157231 1023.4591390957424 165.9753146402309 1015.0108783764846 169.8502247096527C1006.5434822988594 173.7251347790744 999.4155613069602 178.2219439954404 993.627115400787 183.3406523587505zM1559.4883653657491 248.510899118914V289.8432731927458H1400.8801636970113L1393.642214394499 243.344352359685H1450.9908834219407V175.6625898137853C1451.0004511011246 172.400011212124 1450.3354973978533 170.1420389247573 1448.9912384725353 168.8791052725013C1447.6421957076257 167.6209554598372 1445.5564416455663 166.7837835312584 1442.7244086071744 166.3628056471731C1436.6106616087532 165.3103609369598 1429.721932596448 164.4492698104216 1422.0582215702584 163.7795322675586C1414.394510544069 163.1097947246956 1406.9891268558406 162.7653582740803 1399.8420705055737 162.7462229157128C1362.9347480542299 163.0810916871443 1335.355912807049 175.0693937043923 1317.1151324432155 198.7206966466405C1298.8695682397902 222.362431909705 1289.7659214964453 255.6675231483644 1289.7994083735884 298.6216188438431C1290.0673033907335 339.5999887878759 1299.4723320283672 371.69476860979 1318.0240619656727 394.920309828361C1336.5662242237943 418.1314995281564 1362.6333661599413 429.9475833200968 1396.2254877741134 430.368561204182C1404.4058534762257 430.3207228082633 1412.7153828473192 429.6509852654003 1421.1492920478013 428.3689162547768C1429.592768927467 427.0772795649695 1437.1273162846758 425.4986124996496 1443.7577179590198 423.6329150588169C1446.0396094443458 423.2023694955478 1447.8048462537492 422.2456015771721 1449.0534283872296 420.7626113036897C1450.2972266811182 419.2796210302073 1451.292265316229 416.7920244424304 1452.0194089341944 413.2519831444402L1459.769229073038 366.7530623113793L1517.1274657796635 362.5911218664449V460.3297485681183C1500.7954374129897 470.6245713698412 1482.0427862128251 478.2021732833771 1460.8695121791702 483.0673381483177C1439.701021985107 487.9325030132583 1419.5371381053385 490.3387743279733 1400.3539413419048 490.3005036112383C1335.3272097694978 489.1810851467387 1286.7616702327455 470.8781148682108 1254.6668904108315 435.4059442944304C1222.5673267493255 399.9289898810581 1206.5510317957155 353.9849944406552 1206.6180055500017 297.5835256524055C1205.7090760275448 240.8950264886431 1219.6778876358305 194.6352976351762 1248.5244403748593 158.8043390920048C1277.3853446326634 122.9733805488335 1326.6206217122788 104.4838405262223 1396.2254877741136 103.3309351845795C1418.1115539069585 103.2017715155988 1440.8587111663417 105.005279041737 1464.4908787502225 108.75580928177C1488.1134786549192 112.501555682211 1509.966057910621 118.9597391312472 1530.039048838144 128.1303596288786V239.2111149523017C1529.9912104422253 241.7369822568137 1530.5652711932507 243.5261382641763 1531.8090694871391 244.5690152952058C1533.0528677810275 245.6118923262354 1535.205595597373 246.2433591523634 1538.2672529361755 246.4442804152223zM1688.4845999607576 466.534388518785C1688.3889231689202 481.3164528576901 1684.2987403178638 492.5728274173807 1676.2092675679971 500.3082960374485C1668.1150109785383 508.0485484971082 1656.5333353266 511.9473777644893 1641.4642406121823 512C1626.6821762732773 511.9521616040812 1615.248799648687 508.0772515346595 1607.2119491343308 500.327431395816C1599.1750986199745 492.6254496528913 1595.1088349668778 481.3355882160577 1595.0131581750402 466.5535238771525C1595.1088349668776 451.7236211423286 1599.1750986199745 440.2902445177386 1607.2119491343308 432.2533940033823C1615.248799648687 424.2165434890262 1626.682176273277 420.1502798359293 1641.512079008101 420.0546030440917C1656.5811737225188 420.1502798359293 1668.1580655348653 424.2165434890262 1676.2427544451402 432.2533940033823C1684.3274433554152 440.2902445177386 1688.441545404431 451.7236211423286 1688.5372221962684 466.5535238771525zM1722.0575862165622 109.5307912956544V150.3465106935633L1695.7081977444943 153.9630934250236C1691.9768028628291 154.3266652340063 1689.6327214628086 155.1447018042176 1688.6759535444326 156.4172031356574C1687.719185626057 157.7088398254646 1687.3029915815637 160.3399516009978 1687.4465067693197 164.3105384622572V378.717445130668H1580.49898885328L1574.8157874181281 336.8588487017295L1602.7055722387809 327.0519775383782C1605.2410072224764 326.2674278453101 1607.0110278714715 324.9757911555028 1607.9677957898475 323.1770674689564C1608.924563708223 321.3592084240425 1609.4029476674111 319.0342623823895 1609.3551092714924 316.1926616648135V164.3057546226652C1609.4507860633298 160.5456567034486 1608.972402104142 157.9910863613854 1607.9199573939286 156.6133405589243C1606.8675126837152 155.2547301148307 1604.5712696796136 154.3649359507413 1601.079066777542 153.9726611042072L1574.7201106262905 150.3560783727469V109.540358974838zM1927.3799814999957 169.4627337027105C1921.1131516346345 167.0851654255469 1914.4014246872284 165.1237911928766 1907.2304491390023 163.5786110046997C1900.064257430368 162.0477823352986 1892.8310919674475 161.2488811234549 1885.5309527502409 161.1962588879441C1871.8635230362431 161.0527437001878 1862.520684313304 164.3057546226653 1857.4976527418316 170.9457239761929C1852.4889726891345 177.5856933297205 1850.1209720911547 188.4545768824688 1850.3984347874837 203.5619423136217V327.0328421800106H1927.3799814999957V378.6983097723004H1854.5316721948668C1852.5511626038287 378.6983097723004 1851.3456350266756 379.1001522980182 1850.9150894634065 379.9325403870052C1850.4845439001376 380.7601446364002 1850.31232567483 382.0709166845749 1850.3984347874837 383.8696403711213V457.2346043521728H1801.3162405748085C1798.7903732702964 429.4117932858064 1792.226945350239 408.9800143888926 1781.6211729750437 395.9536191802069C1771.001049081073 382.9128724527456 1754.4968024890916 375.2682967849235 1732.0605948031805 373.0198921767405V326.9993553028675H1768.2264221177834C1770.1877963504537 326.9515169069487 1771.3837562484234 326.4731329477608 1771.8143018116923 325.5642034253039C1772.2448473749614 324.6074355069282 1772.388362562718 323.3636372130397 1772.340524166799 321.7849701477197V186.5027703289824C1772.0056553953677 157.498350883422 1778.4638388444037 136.3394283685425 1791.61939772207 123.0212189447523C1804.7749565997365 109.7077933605539 1826.5892651387032 103.1443654404963 1857.0144849430517 103.3261513449877C1871.987902865632 103.5079372494791 1886.9613207882123 105.5984751511301 1901.8390619189552 109.5929812103488C1916.7168030496975 113.5827034299757 1929.8245235314455 118.3856783802218 1941.2100617601168 123.9923383819037z" />
    <glyph glyph-name="abaplint"
      unicode="&#xF102;"
      horiz-adv-x="512" d=" M299.2248470588235 380.2172235294118L321.4230588235294 346.6360470588235L299.7937694117647 335.2521788235295L279.3029270588235 368.8333552941176zM211.5794823529412 376.51968L189.3812705882353 342.9385035294118L211.0102588235295 331.5546352941177L231.5011011764707 365.1358117647059zM481.3733647058824 91.3567623529412H510.4019576470589V67.45088H481.3733647058824zM429.5770352941177 90.2184357647059H472.2657882352942V66.3125534117647H429.5770352941177zM388.0267294117648 91.3568225882353H421.0386823529413V67.4509402352942H388.0267294117648zM463.7274352941176 127.7841167058824H486.4948705882352V103.8782343529412H463.7274352941176zM404.5312 128.3533101176472H453.4814117647059V104.447427764706H404.5312zM370.3808 128.3533101176472H393.1482352941177V104.447427764706H370.3808000000001zM434.7000470588236 163.0729336470589H465.435105882353V139.1670512941177H434.7000470588236zM394.2881882352941 163.6421270588236H423.3167811764706V139.7362447058824H394.2881882352941zM355.584 164.2113807058825H386.8882823529412V140.3054983529413H355.584zM33.9877647058823 89.649121882353H81.7995294117647V65.7432395294119H33.9877647058823zM63.0163576470588 124.9379689411766H96.0283105882353V101.0320865882354H63.0163576470588zM94.32064 89.649121882353H126.7633694117647V65.7432395294119H94.32064zM107.4118776470588 124.9379689411766H141.5622776470588V101.0320865882354H107.4118776470588zM127.90272 162.5037101176472H155.2236423529412V138.5978277647061H127.90272zM0.4056847058824 90.7875689411766H23.17312V66.8816865882354H0.4056847058824zM22.0346729411765 126.0764160000002H53.3389552941176V102.170533647059H22.0346729411765zM82.3693552941177 163.072933647059H118.227425882353V139.1670512941179H82.3693552941177zM44.2343905882353 161.9346070588237H71.5553129411765V138.0287247058826H44.2343905882353zM224.0969788235294 198.3619011764708H440.9560847058824V174.4560188235296H224.0969788235294zM65.2926494117647 198.9311548235296H204.1741552941177V175.0252724705884H65.2926494117647zM303.2130258823529 239.343013647059H414.7748141176471V214.2986842352943H303.2130258823529zM92.6123670588235 239.343013647059H283.8594258823529V214.2986842352943H92.6123670588235zM215.555614117647 293.9854607058825A39.84263529411764 39.84263529411764 0 0 0 175.7129788235294 254.1428254117649A39.84263529411764 39.84263529411764 0 0 0 135.8703435294118 293.9854607058825A39.84263529411764 39.84263529411764 0 0 0 175.7129788235294 333.8280960000002A39.84263529411764 39.84263529411764 0 0 0 215.555614117647 293.9854607058825zM368.0984847058823 295.1239680000002A39.84263529411764 39.84263529411764 0 0 0 328.2558494117647 255.2813327058826A39.84263529411764 39.84263529411764 0 0 0 288.4132141176471 295.1239680000002A39.84263529411764 39.84263529411764 0 0 0 328.2558494117647 334.9666032941178A39.84263529411764 39.84263529411764 0 0 0 368.0984847058823 295.1239680000002zM289.5516611764706 413.5164385882355A39.84263529411764 39.84263529411764 0 0 0 249.709025882353 373.6738032941179A39.84263529411764 39.84263529411764 0 0 0 209.8663905882353 413.5164385882355A39.84263529411764 39.84263529411764 0 0 0 249.709025882353 453.3590738823531A39.84263529411764 39.84263529411764 0 0 0 289.5516611764706 413.5164385882355z" />
    <glyph glyph-name="arrow-circle-up"
      unicode="&#xF103;"
      horiz-adv-x="512" d=" M8 256C8 393 119 504 256 504S504 393 504 256S393 8 256 8S8 119 8 256zM151.6 227.1L224 302.6V120C224 106.7 234.7 96 248 96H264C277.3 96 288 106.7 288 120V302.6L360.4 227.1C369.7 217.4 385.2 217.2000000000001 394.7 226.7000000000001L405.6 237.7000000000001C415 247.1 415 262.3000000000001 405.6 271.6L273 404.3C263.6 413.7 248.4 413.7 239.1 404.3L106.3 271.6C96.9 262.2 96.9 247 106.3 237.7L117.2 226.7C126.8 217.2 142.3 217.4 151.6 227.1z" />
    <glyph glyph-name="bars"
      unicode="&#xF104;"
      horiz-adv-x="448" d=" M16 380H432C440.837 380 448 387.163 448 396V436C448 444.837 440.837 452 432 452H16C7.163 452 0 444.837 0 436V396C0 387.163 7.163 380 16 380zM16 220H432C440.837 220 448 227.163 448 236V276C448 284.837 440.837 292 432 292H16C7.163 292 0 284.837 0 276V236C0 227.163 7.163 220 16 220zM16 60H432C440.837 60 448 67.163 448 76V116C448 124.837 440.837 132 432 132H16C7.163 132 0 124.837 0 116V76C0 67.163 7.163 60 16 60z" />
    <glyph glyph-name="bolt"
      unicode="&#xF105;"
      horiz-adv-x="320" d=" M296 352H180.6L223.2 481.8C227.2 497 215.7 512 200 512H56C44 512 33.8 503.1 32.2 491.2L0.2 251.2C-1.7 236.8 9.5 224 24 224H142.7L96.6 29.5C93 14.3 104.6 0 119.9 0C128.3 0 136.3 4.4 140.7 12L316.7 316C326 331.9 314.5 352 296 352z" />
    <glyph glyph-name="bookmark-solid"
      unicode="&#xF106;"
      horiz-adv-x="384" d=" M0 464V24.3C0 10.9 10.9 0 24.3 0C29.3 0 34.2 1.5 38.3 4.4L192 112L345.7 4.4C349.8 1.5 354.7 0 359.7 0C373.1 0 384 10.9 384 24.3V464C384 490.5 362.5 512 336 512H48C21.5 512 0 490.5 0 464z" />
    <glyph glyph-name="box"
      unicode="&#xF107;"
      horiz-adv-x="512" d=" M509.5 327.4L458.9 479.2C452.4 498.8 434.1 512 413.4 512H272V320H510.7C510.3 322.5 510.3 325 509.5 327.4zM240 512H98.6C77.9 512 59.6 498.8 53.1 479.2L2.5 327.4C1.7 325 1.7 322.5 1.3 320H240V512zM0 288V48C0 21.5 21.5 0 48 0H464C490.5 0 512 21.5 512 48V288H0z" />
    <glyph glyph-name="briefcase"
      unicode="&#xF108;"
      horiz-adv-x="512" d=" M320 176C320 167.16 312.84 160 304 160H208C199.16 160 192 167.16 192 176V224H0V80C0 54.4 22.4 32 48 32H464C489.6 32 512 54.4 512 80V224H320V176zM464 384H384V432C384 457.6 361.6 480 336 480H176C150.4 480 128 457.6 128 432V384H48C22.4 384 0 361.6 0 336V256H512V336C512 361.6 489.6 384 464 384zM320 384H192V416H320V384z" />
    <glyph glyph-name="bug-solid"
      unicode="&#xF109;"
      horiz-adv-x="512" d=" M511.988 223.1C511.51 205.67 496.771 192 479.335 192H424V176C424 154.136 419.118 133.416 410.4 114.855L470.628 54.627C483.124 42.13 483.124 21.869 470.628 9.372C458.13 -3.125 437.869 -3.124 425.372 9.372L370.636 64.108C345.886 44.035 314.351 32 280 32V276C280 282.627 274.627 288 268 288H244C237.373 288 232 282.627 232 276V32C197.649 32 166.114 44.035 141.364 64.108L86.628 9.372C74.13 -3.125 53.869 -3.124 41.372 9.372C28.876 21.869 28.876 42.13 41.372 54.627L101.6 114.855C92.882 133.416 88 154.136 88 176V192H32.666C15.23 192 0.491 205.67 0.013 223.1C-0.484 241.1840000000001 14.028 256 32 256H88V314.745L41.372 361.373C28.876 373.87 28.876 394.131 41.372 406.628C53.87 419.125 74.13 419.125 86.628 406.628L141.255 352H370.7440000000001L425.3710000000001 406.627C437.8690000000001 419.124 458.129 419.124 470.6270000000001 406.627C483.123 394.13 483.123 373.8690000000001 470.6270000000001 361.372L424 314.745V256H480C497.972 256 512.484 241.1840000000001 511.988 223.1zM257 512C195.144 512 145 461.856 145 400H369C369 461.856 318.856 512 257 512z" />
    <glyph glyph-name="check"
      unicode="&#xF10A;"
      horiz-adv-x="512" d=" M173.898 72.596L7.498 238.996C-2.499 248.993 -2.499 265.202 7.498 275.2L43.701 311.404C53.698 321.402 69.908 321.402 79.905 311.404L192 199.31L432.0950000000001 439.404C442.0920000000001 449.401 458.302 449.401 468.299 439.404L504.5020000000001 403.2C514.499 393.203 514.499 376.9940000000001 504.5020000000001 366.996L210.1020000000001 72.595C200.1040000000001 62.598 183.8950000000001 62.598 173.8980000000001 72.596z" />
    <glyph glyph-name="chevron-down"
      unicode="&#xF10B;"
      horiz-adv-x="448" d=" M207.029 130.524L12.686 324.868C3.313 334.241 3.313 349.437 12.686 358.809L35.353 381.476C44.71 390.833 59.875 390.851 69.254 381.516L224 227.495L378.745 381.516C388.124 390.851 403.289 390.833 412.646 381.476L435.313 358.809C444.686 349.4360000000001 444.686 334.24 435.313 324.868L240.971 130.524C231.598 121.152 216.402 121.152 207.029 130.524z" />
    <glyph glyph-name="chevron-left"
      unicode="&#xF10C;"
      horiz-adv-x="320" d=" M34.52 272.9700000000001L228.87 467.31C238.24 476.68 253.44 476.68 262.81 467.31L285.48 444.64C294.8400000000001 435.28 294.85 420.12 285.5200000000001 410.74L131.49 256L285.51 101.25C294.85 91.87 294.83 76.71 285.47 67.35L262.8 44.68C253.43 35.31 238.23 35.31 228.86 44.68L34.52 239.03C25.15 248.4 25.15 263.6 34.52 272.97z" />
    <glyph glyph-name="chevron-right"
      unicode="&#xF10D;"
      horiz-adv-x="320" d=" M285.476 239.029L91.132 44.686C81.759 35.313 66.563 35.313 57.191 44.686L34.524 67.353C25.167 76.7099999999999 25.149 91.8749999999999 34.484 101.254L188.505 256L34.484 410.745C25.149 420.124 25.167 435.289 34.524 444.646L57.191 467.313C66.564 476.686 81.76 476.686 91.132 467.313L285.475 272.9700000000001C294.848 263.598 294.848 248.402 285.476 239.029z" />
    <glyph glyph-name="chevron-up"
      unicode="&#xF10E;"
      horiz-adv-x="448" d=" M240.971 381.476L435.314 187.1330000000001C444.687 177.7600000000001 444.687 162.564 435.314 153.192L412.647 130.525C403.29 121.168 388.125 121.15 378.7459999999999 130.485L224 284.505L69.255 130.484C59.876 121.149 44.711 121.167 35.354 130.524L12.687 153.191C3.314 162.564 3.314 177.7600000000001 12.687 187.1320000000001L207.03 381.475C216.402 390.848 231.598 390.848 240.971 381.476z" />
    <glyph glyph-name="circle-dot-regular"
      unicode="&#xF10F;"
      horiz-adv-x="512" d=" M464 256A208 208 0 1 1 48 256A208 208 0 1 1 464 256zM0 256A256 256 0 1 0 512 256A256 256 0 1 0 0 256zM256 352A96 96 0 1 0 256 160A96 96 0 1 0 256 352z" />
    <glyph glyph-name="circle-play-regular"
      unicode="&#xF110;"
      horiz-adv-x="512" d=" M464 256A208 208 0 1 1 48 256A208 208 0 1 1 464 256zM0 256A256 256 0 1 0 512 256A256 256 0 1 0 0 256zM188.3 364.9C195.9 369.1 205.1 369 212.6 364.4L356.6 276.4C363.7000000000001 272 368.1 264.3 368.1 255.9S363.7000000000001 239.8 356.6 235.4L212.6 147.4C205.2 142.9 195.9 142.7 188.3 146.9S176 159.1 176 167.8V344C176 352.7 180.7 360.7 188.3 364.9z" />
    <glyph glyph-name="circle-solid"
      unicode="&#xF111;"
      horiz-adv-x="512" d=" M256 504C119 504 8 393 8 256S119 8 256 8S504 119 504 256S393 504 256 504z" />
    <glyph glyph-name="cloud-commit"
      unicode="&#xF112;"
      horiz-adv-x="640" d=" M256 480C167.6 480 96 408.4 96 320C96 317.3 96.099219 314.6004000000001 96.19922 311.9004C40.19922 292.2004 0.00022 238.8004 0.00022 176.0004C0.00022 96.5004 64.50022 32.0004 144.00022 32.0004H284.40022V150.3404000000001C251.90022 160.5404 228.40022 190.8414 228.40022 226.6414000000001C228.40022 270.8414 264.20022 306.6414000000001 308.40022 306.6414000000001C352.60022 306.6414000000001 388.40022 270.8414 388.40022 226.6414000000001C388.40022 190.8414 364.90022 160.5404 332.40022 150.3404000000001V32.0004H512.00022C582.7002200000001 32.0004 640.00022 89.3004 640.00022 160.0004C640.00022 221.9004 596.00022 273.6004000000001 537.60022 285.4004C541.7002200000001 296.1004000000001 544.00062 307.8004 544.00062 320.0004C544.00062 373.0004 501.00062 416.0004 448.0006200000001 416.0004C428.3006200000001 416.0004 409.8996200000001 410.0012000000001 394.6996200000001 399.8014C366.9996200000001 447.8014 315.3006200000001 480.0004 255.9996200000001 480.0004zM308.398 242.64C299.598 242.64 292.398 235.44 292.398 226.64C292.398 217.84 299.598 210.64 308.398 210.64C317.1980000000001 210.64 324.398 217.84 324.398 226.64C324.398 235.44 317.1980000000001 242.64 308.398 242.64z" />
    <glyph glyph-name="cloud-solid"
      unicode="&#xF113;"
      horiz-adv-x="640" d=" M537.6 285.4C541.7 296.1 544 307.8 544 320C544 373 501 416 448 416C428.3 416 409.9 410 394.7 399.8C367 447.8 315.3 480 256 480C167.6 480 96 408.4 96 320C96 317.3 96.1 314.6 96.2 311.9C40.2 292.2 0 238.8 0 176C0 96.5 64.5 32 144 32H512C582.7 32 640 89.3 640 160C640 221.9 596 273.6 537.6 285.4z" />
    <glyph glyph-name="cloud-upload-alt"
      unicode="&#xF114;"
      horiz-adv-x="640" d=" M537.6 285.4C541.7 296.1 544 307.8 544 320C544 373 501 416 448 416C428.3 416 409.9 410 394.7 399.8C367 447.8 315.3 480 256 480C167.6 480 96 408.4 96 320C96 317.3 96.1 314.6 96.2 311.9C40.2 292.2 0 238.8 0 176C0 96.5 64.5 32 144 32H512C582.7 32 640 89.3 640 160C640 221.9 596 273.6 537.6 285.4zM393.4 224H328V112C328 103.2 320.8 96 312 96H264C255.2 96 248 103.2 248 112V224H182.6C168.3 224 161.2 241.2 171.3 251.3L276.7 356.7000000000001C282.9 362.9 293.1 362.9 299.3 356.7000000000001L404.7000000000001 251.3C414.8000000000001 241.2 407.6 224 393.4000000000001 224z" />
    <glyph glyph-name="code-branch"
      unicode="&#xF115;"
      horiz-adv-x="384" d=" M384 368C384 412.2 348.2 448 304 448S224 412.2 224 368C224 331.6 248.3 300.9 281.5 291.2C280.9 275.1 277.3 262.7 270.5 254.3C255.1 235.1 221.2 231.9000000000001 185.3 228.6C157.1 226 127.9 223.2000000000001 104 211.7000000000001V355.7000000000001C136.5 365.9000000000001 160 396.2000000000001 160 432.0000000000001C160 476.2 124.2 512 80 512S0 476.2 0 432C0 396.2 23.5 365.9 56 355.7V156.4C23.5 146.1 0 115.8 0 80C0 35.8 35.8 0 80 0S160 35.8 160 80C160 114 138.8 143.1 108.8 154.6C111.9 159.8 116.6 164.4 123.7 168C139.9 176.2 164.1 178.4 189.8 180.8C232 184.7 279.8 189.2 308 224.2C322 241.6 329.1 264 329.6 292.1C361.2000000000001 302.9 384 332.8 384 368zM80 448C88.8 448 96 440.8 96 432S88.8 416 80 416S64 423.2 64 432S71.2 448 80 448zM80 64C71.2 64 64 71.2 64 80S71.2 96 80 96S96 88.8 96 80S88.8 64 80 64zM304 384C312.8 384 320 376.8 320 368S312.8 352 304 352S288 359.2 288 368S295.2 384 304 384z" />
    <glyph glyph-name="code-commit"
      unicode="&#xF116;"
      horiz-adv-x="212.68272004710036" d=" M106.399136492984 512C90.4658934353842 512.0401923265626 74.4613089981356 502.6130821312923 74.4422176430183 482.7897242665097V357.6358433912276C31.2877166126975 344.0920341477775 0.001004808164 303.8032460013738 0.001004808164 256.1652909429889C0.001004808164 208.5770738887254 31.2389834167402 168.2998410362084 74.4422176430183 154.7449789029536V30.0281895790404C74.4623138062997 9.9908075753116 89.8338691001864 0.0487331959572 106.3880836031793 0.0085408693946C122.3102737709744 -0.0316514571681 138.1882523795506 10.0390383671867 138.2475360612305 30.0281895790404V154.7449789029536C181.4492630752625 168.3038602688648 212.6887488960848 208.5775762928074 212.6887488960848 256.1652909429889C212.6887488960848 303.8027435972918 181.4035443037975 344.0910293396135 138.2475360612305 357.6358433912276V482.7897242665097C138.1882523795506 502.032303012462 122.3323795505838 511.9608124816014 106.399638897066 512zM106.3443744480424 277.4325581395349C118.0418486900206 277.4325581395349 127.6126464527524 267.8617603768031 127.6126464527524 256.1642861348249C127.6126464527524 244.4668118928467 118.0418486900206 234.8960141301148 106.3443744480424 234.8960141301148C94.6469002060642 234.8960141301148 85.0761024433324 244.4668118928467 85.0761024433324 256.1642861348249C85.0761024433324 267.8617603768031 94.6469002060642 277.4325581395349 106.3443744480424 277.4325581395349z" />
    <glyph glyph-name="code-fork-solid"
      unicode="&#xF117;"
      horiz-adv-x="448" d=" M80 408A24 24 0 1 1 80 456A24 24 0 1 1 80 408zM160 432C160 399.2 140.3 371 112 358.7L112 320C112 302.3 126.3 288 144 288L304 288C321.7 288 336 302.3 336 320L336 358.7C307.7 371 288 399.2 288 432C288 476.2 323.8 512 368 512S448 476.2 448 432C448 399.2 428.3 371 400 358.7L400 320C400 267 357 224 304 224L256 224L256 153.3C284.3 141 304 112.8 304 80C304 35.8 268.2 0 224 0S144 35.8 144 80C144 112.8 163.7 141 192 153.3L192 224L144 224C91 224 48 267 48 320L48 358.7C19.7 371 0 399.2 0 432C0 476.2 35.8 512 80 512S160 476.2 160 432zM368 408A24 24 0 1 1 368 456A24 24 0 1 1 368 408zM248 80A24 24 0 1 1 200 80A24 24 0 1 1 248 80z" />
    <glyph glyph-name="code-pull-request-solid"
      unicode="&#xF118;"
      horiz-adv-x="512" d=" M305.8 509.9C314.4 506.1 320 497.5 320 488V448H336C406.7 448 464 390.7 464 320V153.3C492.3 141 512 112.8 512 80C512 35.8 476.2 0 432 0S352 35.8 352 80C352 112.8 371.7 141 400 153.3V320C400 355.3 371.3 384 336 384H320V344C320 334.5 314.4 325.9 305.8 322.1S287 319.8 280 326.2L200 398.2C194.9 402.8 192.1 409.2 192.1 416S195 429.3 200 433.8L280 505.8C287 512.1 297.2 513.6999999999999 305.8 509.9zM104 432A24 24 0 1 1 56 432A24 24 0 1 1 104 432zM112 358.7V153.3C140.3 141 160 112.8 160 80C160 35.8 124.2 0 80 0S0 35.8 0 80C0 112.8 19.7 141 48 153.3V358.7C19.7 371 0 399.2 0 432C0 476.2 35.8 512 80 512S160 476.2 160 432C160 399.2 140.3 371 112 358.7zM104 80A24 24 0 1 1 56 80A24 24 0 1 1 104 80zM432 56A24 24 0 1 1 432 104A24 24 0 1 1 432 56z" />
    <glyph glyph-name="code-solid"
      unicode="&#xF119;"
      horiz-adv-x="640" d=" M392.8 510.8C375.8 515.7 358.1 505.8 353.2 488.8L225.2 40.8C220.3 23.8 230.2 6.1 247.2 1.2S281.9 6.2 286.8 23.2L414.8 471.2C419.7 488.2 409.8 505.9 392.8 510.8zM473.4 390.7C460.9 378.2 460.9 357.9 473.4 345.4L562.7 256L473.3000000000001 166.6C460.8000000000001 154.1 460.8000000000001 133.8 473.3000000000001 121.3S506.1000000000001 108.8 518.6 121.3L630.6 233.3C643.1 245.8 643.1 266.1 630.6 278.6L518.6 390.6C506.1 403.1 485.8 403.1 473.3 390.6zM166.7 390.7C154.2 403.2 133.9 403.2 121.4 390.7L9.4 278.7C-3.1 266.2 -3.1 245.9 9.4 233.4L121.4 121.4C133.9 108.9 154.2 108.9 166.7 121.4S179.2 154.2 166.7 166.7L77.3 256L166.7 345.4C179.2 357.9 179.2 378.2 166.7 390.7z" />
    <glyph glyph-name="cog"
      unicode="&#xF11A;"
      horiz-adv-x="512" d=" M487.4 196.3L444.8 220.9C449.1 244.1 449.1 267.9000000000001 444.8 291.1L487.4 315.7000000000001C492.3 318.5 494.5 324.3 492.9 329.7000000000001C481.8 365.3 462.9 397.5 438.2 424.3C434.4 428.4 428.2 429.4 423.4 426.6L380.8 402C362.9000000000001 417.4 342.3 429.3 320 437.1V486.2C320 491.8 316.1 496.7 310.6 497.9C273.9000000000001 506.1 236.3 505.7 201.4 497.9C195.9 496.7 192 491.8 192 486.2V437C169.8000000000001 429.1 149.2000000000001 417.2 131.2000000000001 401.9L88.7 426.5C83.8 429.3 77.7 428.4 73.9 424.2C49.2 397.5 30.3 365.3 19.2 329.6C17.5 324.2000000000001 19.8 318.4000000000001 24.7 315.6L67.3 291C63 267.8 63 244 67.3 220.8L24.7 196.2C19.8 193.4 17.6 187.6 19.2 182.2C30.3 146.6 49.2 114.4 73.9 87.6C77.7 83.5 83.9 82.5 88.7 85.3L131.3 109.9C149.2 94.5000000000001 169.8 82.6 192.1 74.8V25.6C192.1 20 196 15.1 201.5 13.9C238.2000000000001 5.7 275.8 6.1 310.7000000000001 13.9C316.2000000000001 15.1 320.1 20.0000000000001 320.1 25.6V74.8C342.3 82.7 362.9000000000001 94.6 380.9000000000001 109.9L423.5000000000001 85.3C428.4000000000001 82.5 434.5000000000001 83.4 438.3000000000001 87.6C463.0000000000001 114.3 481.9000000000001 146.5 493.0000000000001 182.2000000000001C494.5000000000001 187.7000000000001 492.3000000000001 193.5000000000001 487.4 196.3000000000001zM256 176C211.9 176 176 211.9 176 256S211.9 336 256 336S336 300.1 336 256S300.1 176 256 176z" />
    <glyph glyph-name="copy-solid"
      unicode="&#xF11B;"
      horiz-adv-x="448" d=" M320 64V24C320 10.745 309.255 0 296 0H24C10.745 0 0 10.745 0 24V392C0 405.255 10.745 416 24 416H96V120C96 89.121 121.121 64 152 64H320zM320 408V512H152C138.745 512 128 501.255 128 488V120C128 106.745 138.745 96 152 96H424C437.255 96 448 106.745 448 120V384H344C330.8 384 320 394.8 320 408zM440.971 439.029L375.029 504.971A24 24 0 0 1 358.0590000000001 512H352V416H448V422.059A24 24 0 0 1 440.971 439.029z" />
    <glyph glyph-name="download-solid"
      unicode="&#xF11C;"
      horiz-adv-x="512" d=" M288 480C288 497.7 273.7 512 256 512S224 497.7 224 480V237.3L150.6 310.7000000000001C138.1 323.2000000000001 117.8 323.2000000000001 105.3 310.7000000000001S92.8 277.9000000000001 105.3 265.4000000000001L233.3 137.4C245.8 124.9 266.1 124.9 278.6 137.4L406.6 265.4000000000001C419.1 277.9000000000001 419.1 298.2000000000001 406.6 310.7000000000001S373.8 323.2000000000001 361.3 310.7000000000001L288 237.3V480zM64 160C28.7 160 0 131.3 0 96V64C0 28.7 28.7 0 64 0H448C483.3 0 512 28.7 512 64V96C512 131.3 483.3 160 448 160H346.5L301.2 114.7C276.2 89.7 235.7 89.7 210.7 114.7L165.5 160H64zM432 104A24 24 0 1 0 432 56A24 24 0 1 0 432 104z" />
    <glyph glyph-name="edit-solid"
      unicode="&#xF11D;"
      horiz-adv-x="576" d=" M402.6 428.8L492.8 338.6C496.6 334.8 496.6 328.6 492.8 324.8L274.4 106.4L181.6 96.1C169.2 94.7 158.7 105.2 160.1 117.6L170.4 210.4L388.8 428.8C392.6 432.6 398.8 432.6 402.6 428.8zM564.6 451.7L515.8000000000001 500.5C500.6000000000001 515.7 475.9000000000001 515.7 460.6000000000001 500.5L425.2000000000001 465.1C421.4000000000001 461.3 421.4000000000001 455.1 425.2000000000001 451.3L515.4000000000001 361.1C519.2 357.3 525.4000000000001 357.3 529.2 361.1L564.6 396.5C579.8000000000001 411.8 579.8000000000001 436.5 564.6 451.7zM384 165.8V64H64V384H293.8C297 384 300 385.3 302.3 387.5L342.3 427.5C349.9000000000001 435.1 344.5 448 333.8 448H48C21.5 448 0 426.5 0 400V48C0 21.5 21.5 0 48 0H400C426.5 0 448 21.5 448 48V205.8C448 216.5 435.1 221.8 427.5 214.3L387.5 174.3C385.3 172 384 169 384 165.8z" />
    <glyph glyph-name="exclamation-circle"
      unicode="&#xF11E;"
      horiz-adv-x="512" d=" M504 256C504 119.003 392.957 8 256 8S8 119.003 8 256C8 392.9170000000001 119.043 504 256 504S504 392.9170000000001 504 256zM256 206C230.595 206 210 185.405 210 160S230.595 114 256 114S302 134.595 302 160S281.405 206 256 206zM212.327 371.346L219.745 235.346C220.092 228.9820000000001 225.354 224 231.727 224H280.273C286.646 224 291.908 228.9820000000001 292.255 235.346L299.673 371.346C300.048 378.2200000000001 294.575 384 287.6910000000001 384H224.308C217.424 384 211.952 378.2200000000001 212.327 371.346z" />
    <glyph glyph-name="exclamation-triangle"
      unicode="&#xF11F;"
      horiz-adv-x="576" d=" M569.517 71.987C587.975 39.993 564.806 0 527.94 0H48.054C11.117 0 -11.945 40.055 6.477 71.987L246.423 488.015C264.89 520.024 311.1430000000001 519.966 329.577 488.015L569.517 71.987zM288 158C262.5950000000001 158 242 137.405 242 112S262.5950000000001 66 288 66S334 86.595 334 112S313.405 158 288 158zM244.327 323.346L251.745 187.346C252.092 180.982 257.354 176 263.727 176H312.273C318.646 176 323.908 180.982 324.255 187.346L331.673 323.346C332.048 330.2200000000001 326.575 336 319.6910000000001 336H256.3080000000001C249.4240000000001 336 243.9520000000001 330.2200000000001 244.3270000000001 323.346z" />
    <glyph glyph-name="eye-solid"
      unicode="&#xF120;"
      horiz-adv-x="576" d=" M288 480C207.2 480 142.5 443.2 95.4 399.4C48.6 356 17.3 304 2.5 268.3C-0.8 260.4 -0.8 251.6 2.5 243.7C17.3 208 48.6 156 95.4 112.6C142.5 68.8 207.2 32 288 32S433.5 68.8 480.6 112.6C527.4 156.1 558.7 208 573.6 243.7000000000001C576.9 251.6 576.9 260.4000000000001 573.6 268.3000000000001C558.7 304.0000000000001 527.4 356.0000000000001 480.6 399.4000000000001C433.5 443.2 368.8 480 288 480zM144 256A144 144 0 1 0 432 256A144 144 0 1 0 144 256zM288 320C288 284.7 259.3 256 224 256C216.9 256 210.1 257.2 203.7 259.3C198.2 261.1 191.8 257.7000000000001 192 251.9000000000001C192.3 245.0000000000001 193.3 238.1 195.2 231.2000000000001C208.9 180.0000000000001 261.6 149.6 312.8 163.3000000000001S394.4 229.7000000000001 380.7 280.9000000000001C369.5999999999999 322.4000000000001 332.8999999999999 350.3000000000001 292.0999999999999 352.0000000000001C286.2999999999999 352.2000000000001 282.8999999999999 345.9000000000001 284.7 340.3000000000001C286.8 333.9000000000001 288 327.1000000000001 288 320.0000000000001z" />
    <glyph glyph-name="file-alt"
      unicode="&#xF121;"
      horiz-adv-x="384" d=" M288 264V236C288 229.4 282.6 224 276 224H108C101.4 224 96 229.4 96 236V264C96 270.6 101.4 276 108 276H276C282.6 276 288 270.6 288 264zM276 192H108C101.4 192 96 186.6 96 180V152C96 145.4 101.4 140 108 140H276C282.6 140 288 145.4 288 152V180C288 186.6 282.6 192 276 192zM384 380.1V48C384 21.5 362.5 0 336 0H48C21.5 0 0 21.5 0 48V464C0 490.5 21.5 512 48 512H252.1C264.8 512 277 506.9 286 497.9L369.9 414C378.9 405.1 384 392.8 384 380.1zM256 460.1V384H332.1L256 460.1zM336 48V336H232C218.7 336 208 346.7 208 360V464H48V48H336z" />
    <glyph glyph-name="file-code"
      unicode="&#xF122;"
      horiz-adv-x="384" d=" M149.9 162.9L149.7 163.1L116.9 192L149.7 220.8999999999999C153.3 224.0999999999999 153.7 229.7 150.5 233.2999999999999L150.3000000000001 233.4999999999999L132.9 252.0999999999999C129.5 255.7 123.9 255.7999999999999 120.5 252.4999999999999L62.8 198.3999999999999C59.1 194.8999999999999 59.1 188.9999999999999 62.8 185.5999999999999L120.5 131.4999999999998C122.1 129.9999999999998 124.3 129.0999999999999 126.5 129.0999999999999C128.9 129.0999999999999 131.3000000000001 130.0999999999999 132.9 131.8999999999999L150.3000000000001 150.4999999999999C153.6000000000001 153.9999999999999 153.4 159.5999999999999 149.9 162.8999999999999zM369.9 414.1L286 498C277 507 264.8 512.1 252.1 512.1H48C21.5 512 0 490.5 0 464V48C0 21.5 21.5 0 48 0H336C362.5 0 384 21.5 384 48V380.1C384 392.8 378.9 405.1 369.9 414.1zM256 460.1L332.1 384H256zM336 48H48V464H208V360C208 346.7 218.7 336 232 336H336zM209.6 298C204.9 299.4 200.1 296.7 198.7 292L144 103.9C142.6 99.2 145.3 94.3 150 93L174.4 85.9C179.1 84.5 184 87.3 185.3 91.9L240 280.1C241.4 284.8 238.7 289.7 234 291zM234.1 221.1L234.3 220.9L267.1 192.0000000000001L234.3 163.1000000000001C230.7 159.9000000000001 230.3 154.3000000000001 233.5 150.7000000000001L233.7 150.5000000000001L251.1 131.9000000000001C254.4 128.4000000000001 260 128.2000000000001 263.5 131.5000000000001L321.2 185.6000000000001C324.8999999999999 189.1000000000001 324.8999999999999 195.0000000000001 321.2 198.4000000000002L263.5 252.5000000000002C260 255.8000000000002 254.4 255.7000000000002 251.1 252.1000000000002L233.7 233.5000000000002C230.3999999999999 230.0000000000002 230.6 224.4000000000002 234.1 221.1000000000002z" />
    <glyph glyph-name="file-image"
      unicode="&#xF123;"
      horiz-adv-x="384" d=" M369.9 414.1L286 498C277 507 264.8 512.1 252.1 512.1H48C21.5 512 0 490.5 0 464V48C0 21.5 21.5 0 48 0H336C362.5 0 384 21.5 384 48V380.1C384 392.8 378.9 405.1 369.9 414.1zM332.1 384H256V460.1L332.1 384zM48 48V464H208V360C208 346.7 218.7 336 232 336H336V48H48zM80 96H304V224L280.5 247.5C275.8 252.2 268.2 252.2 263.5 247.5L176 160L136.5 199.5C131.8 204.2 124.2 204.2 119.5 199.5L80 160V96zM128 336C101.5 336 80 314.5 80 288S101.5 240 128 240S176 261.5 176 288S154.5 336 128 336z" />
    <glyph glyph-name="file-zipper-regular"
      unicode="&#xF124;"
      horiz-adv-x="384" d=" M64 48C55.2 48 48 55.2 48 64L48 448C48 456.8 55.2 464 64 464L112 464C112 455.2 119.2 448 128 448L160 448C168.8 448 176 455.2 176 464L224 464L224 384C224 366.3 238.3 352 256 352L336 352L336 64C336 55.2 328.8 48 320 48L64 48zM64 512C28.7 512 0 483.3 0 448L0 64C0 28.7 28.7 0 64 0L320 0C355.3 0 384 28.7 384 64L384 357.5C384 374.5 377.3 390.8 365.3 402.8L274.7 493.3C262.7 505.3 246.5 512 229.5 512L64 512zM112 400C112 391.2 119.2 384 128 384L160 384C168.8 384 176 391.2 176 400S168.8 416 160 416L128 416C119.2 416 112 408.8 112 400zM112 336C112 327.2 119.2 320 128 320L160 320C168.8 320 176 327.2 176 336S168.8 352 160 352L128 352C119.2 352 112 344.8 112 336zM105.7 264.2L82.1 176.1C80.7 170.7000000000001 80 165.2000000000001 80 159.7000000000001C80 124.5000000000001 108.8 96.0000000000001 144 96.0000000000001S208 124.5000000000001 208 159.7000000000001C208 165.2000000000001 207.3 170.8000000000001 205.9 176.1L182.4 264.3C178.7 278.3 166 288.1 151.5 288.1L136.7 288.1C122.2 288.1 109.5 278.4000000000001 105.8 264.3zM128 176L160 176C168.8 176 176 168.8 176 160S168.8 144 160 144L128 144C119.2 144 112 151.2 112 160S119.2 176 128 176z" />
    <glyph glyph-name="file"
      unicode="&#xF125;"
      horiz-adv-x="384" d=" M369.9 414.1L286 498C277 507 264.8 512.1 252.1 512.1H48C21.5 512 0 490.5 0 464V48C0 21.5 21.5 0 48 0H336C362.5 0 384 21.5 384 48V380.1C384 392.8 378.9 405.1 369.9 414.1zM332.1 384H256V460.1L332.1 384zM48 48V464H208V360C208 346.7 218.7 336 232 336H336V48H48z" />
    <glyph glyph-name="fire-alt"
      unicode="&#xF126;"
      horiz-adv-x="448" d=" M323.56 460.8C302.76 441.5 283.98 421.21 267.3400000000001 400.83C240.08 438.38 206.28 476.47 168 512C69.74 420.83 0 302.04 0 230.4C0 103.15 100.29 0 224 0S448 103.15 448 230.4C448 283.67 396.02 393.54 323.56 460.8zM304.0900000000001 120.15C282.43 104.99 255.72 96 226.86 96C154.71 96 96 143.74 96 221.25C96 259.86 120.31 293.88 168.79 352C175.72 344.02 267.62 226.66 267.62 226.66L326.25 293.54C330.39 286.69 334.1600000000001 279.99 337.52 273.57C364.87 221.38 353.33 154.6 304.09 120.15z" />
    <glyph glyph-name="flow"
      unicode="&#xF127;"
      horiz-adv-x="512" d=" M249.4 486.6C261.9 499.1 282.2 499.1 294.7 486.6S307.2 453.8 294.7 441.3L269.3 416L416 416C469 416 512 373 512 320V288C512 270.3 497.7 256 480 256S448 270.3 448 288V320C448 337.7 433.7 352 416 352L269.3 352L294.7 326.6C307.2 314.1 307.2 293.8 294.7 281.3S261.9 268.8 249.4 281.3L169.4 361.3C156.9 373.8 156.9 394.1 169.4 406.6L249.4 486.6zM262.7 230.6L342.7 150.6C355.2 138.1 355.2 117.8 342.7 105.3L262.7 25.3C250.2 12.8 229.9 12.8 217.4 25.3S204.9 58.1 217.4 70.6L242.7 96L96 96C78.3 96 64 81.7 64 64V32C64 14.3 49.7 0 32 0S0 14.3 0 32V64C0 117 43 160 96 160L242.7 160L217.3 185.4C204.8 197.9 204.8 218.2 217.3 230.7S250.1 243.2 262.6 230.7zM384 128A64 64 0 1 0 512 128A64 64 0 1 0 384 128zM64 320A64 64 0 1 0 64 448A64 64 0 1 0 64 320z" />
    <glyph glyph-name="folder"
      unicode="&#xF128;"
      horiz-adv-x="512" d=" M464 384H272L217.37 438.63C211.37 444.63 203.23 448 194.74 448H48C21.49 448 0 426.51 0 400V112C0 85.49 21.49 64 48 64H464C490.51 64 512 85.49 512 112V336C512 362.51 490.51 384 464 384zM464 112H48V400H188.12L242.75 345.37C248.75 339.37 256.89 336 265.38 336H464V112z" />
    <glyph glyph-name="git-alt"
      unicode="&#xF129;"
      horiz-adv-x="448" d=" M439.55 275.95L244 471.55A28.87 28.87 0 0 1 203.19 471.55L162.53 430.92L214.05 379.4C241.11 388.54 266.73 362.63 257.44 335.72L307.1 286.06C341.3300000000001 297.86 368.2800000000001 255.06 342.5700000000001 229.37C316.0800000000001 202.88 272.3600000000001 232.24 286.5700000000001 266.7100000000001L240.22 313V191.15C265.52 178.61 262.48 149.3 249.3 136.15A34.34 34.34 0 0 0 200.75 136.15C183.18 153.75 189.68 183.06 212 192.15V315.15C191.2 323.66 187.4 345.89 193.36 360.15L142.57 411L8.45 276.86A28.859999999999996 28.859999999999996 0 0 1 8.45 236.05L204.06 40.45A28.859999999999996 28.859999999999996 0 0 1 244.86 40.45L439.55 235.1400000000001A28.859999999999996 28.859999999999996 0 0 1 439.55 275.9500000000001z" />
    <glyph glyph-name="github"
      unicode="&#xF12A;"
      horiz-adv-x="496" d=" M165.9 114.6C165.9 112.6 163.6 111 160.7 111C157.4 110.7 155.1 112.3 155.1 114.6C155.1 116.6 157.4 118.2000000000001 160.3 118.2000000000001C163.3 118.5000000000001 165.9 116.9 165.9 114.6zM134.8 119.1C134.1 117.1 136.1 114.8 139.1 114.2000000000001C141.7 113.2000000000001 144.7 114.2000000000001 145.3 116.2000000000001S144 120.5000000000001 141 121.4C138.4 122.1 135.5 121.1 134.8 119.1zM179 120.8C176.1 120.1 174.1 118.2 174.4 115.9C174.7 113.9 177.3 112.6 180.3 113.3C183.2 114 185.2 115.9 184.9 117.9C184.6 119.8 181.9 121.1 179 120.8zM244.8 504C106.1 504 0 398.7 0 260C0 149.1 69.8 54.2 169.5 20.8C182.3 18.5 186.8 26.4 186.8 32.9C186.8 39.1 186.5 73.3 186.5 94.3C186.5 94.3 116.5 79.3 101.8 124.1C101.8 124.1 90.4 153.2000000000001 74 160.7000000000001C74 160.7000000000001 51.1 176.4 75.6 176.1C75.6 176.1 100.5 174.1 114.2 150.3C136.1 111.7 172.8 122.8 187.1 129.4C189.4 145.4 195.9 156.5000000000001 203.1 163.1C147.2 169.3 90.8 177.4 90.8 273.6C90.8 301.1 98.4 314.9000000000001 114.4 332.5C111.8 339 103.3 365.8 117 400.4000000000001C137.9 406.9000000000001 186 373.4000000000001 186 373.4000000000001C206 379 227.5 381.9000000000001 248.8 381.9000000000001S291.6 379 311.6 373.4000000000001C311.6 373.4000000000001 359.7000000000001 407 380.6 400.4000000000001C394.3 365.7000000000001 385.8 339 383.2000000000001 332.5C399.2000000000001 314.8000000000001 409.0000000000001 301 409.0000000000001 273.6C409.0000000000001 177.1 350.1000000000001 169.4 294.2000000000001 163.1C303.4000000000001 155.2000000000001 311.2000000000001 140.2000000000001 311.2000000000001 116.7000000000001C311.2000000000001 83.0000000000001 310.9000000000001 41.3000000000001 310.9000000000001 33.1C310.9000000000001 26.6 315.5000000000001 18.7 328.2000000000001 21C428.2 54.2 496 149.1 496 260C496 398.7 383.5 504 244.8 504zM97.2 159.1C95.9 158.1 96.2 155.8 97.9 153.9C99.5 152.3 101.8 151.6 103.1 152.9C104.4 153.9 104.1 156.2000000000001 102.4 158.1C100.8 159.7000000000001 98.5 160.4 97.2 159.1zM86.4 167.2000000000001C85.7 165.9 86.7 164.3000000000001 88.7 163.3000000000001C90.3 162.3000000000001 92.3 162.6000000000001 93 164.0000000000001C93.7 165.3000000000001 92.7 166.9 90.7 167.9C88.7 168.5000000000001 87.1 168.2000000000001 86.4 167.2000000000001zM118.8 131.6C117.2 130.3 117.8 127.3 120.1 125.4C122.4 123.1 125.3 122.8 126.6 124.4C127.9 125.7000000000001 127.3 128.7000000000001 125.3 130.6C123.1 132.9 120.1 133.2000000000001 118.8 131.6zM107.4 146.3C105.8 145.3 105.8 142.7 107.4 140.4C109 138.1 111.7 137.1 113 138.1C114.6 139.4 114.6 142 113 144.3C111.6 146.6 109 147.6 107.4 146.3z" />
    <glyph glyph-name="heart-regular"
      unicode="&#xF12B;"
      horiz-adv-x="512" d=" M244 428L255.1 416L267.1 427.98C300.6 460.63 347 475.49 392.6 467.9C461.5 456.42 512 396.8 512 326.9V321.1C512 279.6 494.8 239.9 464.4 211.6L283.7 42.9C276.2 35.9 266.3 32 256 32C245.7 32 235.8 35.9 228.3 42.9L47.59 211.6C17.23 239.9 0 279.6 0 321.1V326.9C0 396.8 50.52 456.42 119.4 467.9C164.1 475.49 211.4 460.63 244 428C243.1 428 244 427.99 244 428L244 428zM255.1 348.1L210.1 394.9C188.4 415.7200000000001 157.6 425.6 127.3 420.56C81.55 412.93 48 373.3 48 326.9V321.1C48 292.9 59.71 265.9 80.34 246.7L256 82.7L431.7 246.7C452.3 265.9 464 292.9 464 321.1V326.9C464 373.3 430.4 412.93 384.7 420.56C354.4 425.6 323.6 415.7200000000001 301.9 394.9L255.1 348.1z" />
    <glyph glyph-name="info-circle-solid"
      unicode="&#xF12C;"
      horiz-adv-x="512" d=" M256 504C119.043 504 8 392.9170000000001 8 256C8 119.003 119.043 8 256 8S504 119.003 504 256C504 392.9170000000001 392.957 504 256 504zM256 394C279.1960000000001 394 298 375.1960000000001 298 352S279.1960000000001 310 256 310S214 328.804 214 352S232.804 394 256 394zM312 140C312 133.373 306.627 128 300 128H212C205.373 128 200 133.373 200 140V164C200 170.627 205.373 176 212 176H224V240H212C205.373 240 200 245.373 200 252V276C200 282.627 205.373 288 212 288H276C282.627 288 288 282.627 288 276V176H300C306.627 176 312 170.627 312 164V140z" />
    <glyph glyph-name="language-solid"
      unicode="&#xF12D;"
      horiz-adv-x="640" d=" M0 384C0 419.3 28.7 448 64 448H256H304H320H576C611.3 448 640 419.3 640 384V128C640 92.7 611.3 64 576 64H320H304H256H64C28.7 64 0 92.7 0 128V384zM320 384V128H576V384H320zM178.3 336.1C175.1 343.3 167.9 348 160 348S144.9 343.3 141.7 336.1L77.7 192.1C73.2 182 77.8 170.2000000000001 87.9 165.7000000000001S109.8 165.8000000000001 114.3 175.9L123.2 196.0000000000001H196.8L205.7 175.9C210.2 165.8 222 161.3 232.1 165.7000000000001S246.7 182.0000000000001 242.3 192.1L178.3 336.1zM160 278.8L179 236H141L160 278.8zM448 348C459 348 468 339 468 328V324H512H528C539 324 548 315 548 304S539 284 528 284H526L524.4 279.5C515.5 255.1 502 232.9 484.8 214.1C485.6999999999999 213.5 486.6 213 487.4999999999999 212.5L506.3999999999999 201.2C515.8999999999999 195.5 518.8999999999999 183.2 513.3 173.8S495.3 161.3 485.9 166.9L467 178.2000000000001C462.5 180.9 458.2 183.7000000000001 453.9 186.7000000000001C443.3 179.2000000000001 432 172.7000000000001 419.9 167.3000000000001L416.3 165.7000000000001C406.2 161.2000000000001 394.4 165.8000000000001 389.9 175.9S390 197.8 400.1 202.3L403.7 203.9C410.1 206.8 416.3 210.0000000000001 422.2 213.7000000000001L410 225.9000000000001C402.2 233.7000000000001 402.2 246.4000000000001 410 254.2000000000001S430.5 262.0000000000001 438.3 254.2000000000001L452.9 239.6L453.4 239.1C465.8 252.2000000000001 475.9 267.4000000000001 483.2 284.1H448H376C365 284.1 356 293.1 356 304.1S365 324.1 376 324.1H428V328.1C428 339.1 437 348.1 448 348.1z" />
    <glyph glyph-name="link-solid"
      unicode="&#xF12E;"
      horiz-adv-x="640" d=" M579.8 244.3C636.3 300.8 636.3 392.3 579.8 448.8C529.8 498.8 450.9999999999999 505.3 393.5 464.2L391.8999999999999 463.1C377.5 452.8 374.2 432.8 384.5 418.5S414.8 400.8 429.1 411.1L430.7 412.2C462.8 435.1 506.7 431.5 534.5 403.6C566 372.1 566 321.1 534.5 289.6L422.3 177.2C390.8 145.7 339.8 145.7 308.3 177.2C280.4000000000001 205.1 276.8 249 299.7 281L300.8 282.6C311.1 297 307.7 317 293.4000000000001 327.2S259.0000000000001 334.1 248.8000000000001 319.8L247.7000000000001 318.2C206.5 260.8 213 182 263 132C319.5 75.5 411 75.5 467.5 132L579.8 244.3zM60.2 267.7C3.7 211.2 3.7 119.7 60.2 63.2C110.2 13.2 189 6.7 246.5 47.8L248.1 48.9C262.5 59.2000000000001 265.8 79.2000000000001 255.5 93.5000000000001S225.2 111.2000000000001 210.9 100.9L209.3 99.8C177.2 76.9 133.3 80.5 105.5 108.4C74 140 74 191 105.5 222.5L217.7 334.8C249.2 366.3 300.2 366.3 331.7 334.8C359.6 306.9 363.2 263 340.3 230.9L339.2 229.3C328.9 214.9 332.3 194.9 346.6 184.6999999999999S381 177.8 391.2 192.0999999999999L392.3 193.6999999999999C433.5 251.2 427 330 377 380C320.5 436.5 229 436.5 172.5 380L60.2 267.7z" />
    <glyph glyph-name="lock"
      unicode="&#xF12F;"
      horiz-adv-x="448" d=" M400 288H376V360C376 443.8 307.8 512 224 512S72 443.8 72 360V288H48C21.5 288 0 266.5 0 240V48C0 21.5 21.5 0 48 0H400C426.5 0 448 21.5 448 48V240C448 266.5 426.5 288 400 288zM296 288H152V360C152 399.7 184.3 432 224 432S296 399.7 296 360V288z" />
    <glyph glyph-name="magnifying-glass-solid"
      unicode="&#xF130;"
      horiz-adv-x="512" d=" M416 304C416 258.1 401.1 215.7 376 181.3L502.6 54.6C515.1 42.1 515.1 21.8 502.6 9.3S469.8 -3.2 457.3 9.3L330.7 136C296.3 110.8 253.9 96 208 96C93.1 96 0 189.1 0 304S93.1 512 208 512S416 418.9 416 304zM208 160A144 144 0 1 1 208 448A144 144 0 1 1 208 160z" />
    <glyph glyph-name="markdown"
      unicode="&#xF131;"
      horiz-adv-x="640" d=" M593.8 452.9H46.2C20.7 452.9 0 432.2 0 406.8V105.3C0 79.8 20.7 59.1 46.2 59.1H593.9000000000001C619.4000000000001 59.1 640.1000000000001 79.8 640.0000000000001 105.2000000000001V406.8C640.0000000000001 432.2 619.3000000000001 452.9 593.8000000000001 452.9zM338.5 151.4H277V271.4L215.5 194.5L154 271.4V151.4H92.3V360.6H153.8L215.3 283.7L276.8 360.6H338.3V151.4zM473.8 148.3L381.5 256H443V360.6H504.5V256H566z" />
    <glyph glyph-name="paste-solid"
      unicode="&#xF132;"
      horiz-adv-x="448" d=" M128 328C128 358.879 153.122 384 184 384H320V456C320 469.255 309.255 480 296 480H215.39C204.306 499.11 183.637 512 160 512S115.694 499.11 104.61 480H24C10.745 480 0 469.255 0 456V120C0 106.745 10.745 96 24 96H128V328zM160 472C173.255 472 184 461.255 184 448S173.255 424 160 424S136 434.745 136 448S146.745 472 160 472zM344 224H448V24C448 10.745 437.255 0 424 0H184C170.745 0 160 10.745 160 24V328C160 341.255 170.745 352 184 352H320V248C320 234.8 330.8 224 344 224zM448 262.059V256H352V352H358.0590000000001A24 24 0 0 0 375.029 344.971L440.9700000000001 279.03A24.002000000000002 24.002000000000002 0 0 0 448 262.059z" />
    <glyph glyph-name="plug"
      unicode="&#xF133;"
      horiz-adv-x="384" d=" M256 368V480C256 497.673 270.327 512 288 512S320 497.673 320 480V368H256zM368 352H16C7.163 352 0 344.837 0 336V304C0 295.163 7.163 288 16 288H32V256C32 178.594 86.969 114.029 160 99.204V0H224V99.204C297.031 114.029 352 178.594 352 256V288H368C376.837 288 384 295.163 384 304V336C384 344.837 376.837 352 368 352zM128 368V480C128 497.673 113.673 512 96 512S64 497.673 64 480V368H128z" />
    <glyph glyph-name="question-circle-solid"
      unicode="&#xF134;"
      horiz-adv-x="512" d=" M504 256C504 119.003 392.957 8 256 8S8 119.003 8 256C8 392.9170000000001 119.043 504 256 504S504 392.9170000000001 504 256zM262.655 422C208.158 422 173.4 399.043 146.106 358.242C142.57 352.956 143.753 345.827 148.821 341.984L183.52 315.674C188.725 311.727 196.141 312.666 200.185 317.796C218.049 340.454 230.298 353.593 257.488 353.593C277.9169999999999 353.593 303.1859999999999 340.445 303.1859999999999 320.635C303.1859999999999 305.659 290.8229999999999 297.968 270.652 286.659C247.128 273.472 216 257.059 216 216V212C216 205.373 221.373 200 228 200H284C290.627 200 296 205.373 296 212V213.333C296 241.795 379.1860000000001 242.98 379.1860000000001 320C379.1860000000001 378.0020000000001 319.021 422 262.6550000000001 422zM256 174C230.635 174 210 153.365 210 128C210 102.636 230.635 82 256 82S302 102.636 302 128C302 153.365 281.365 174 256 174z" />
    <glyph glyph-name="redo-alt-solid"
      unicode="&#xF135;"
      horiz-adv-x="512" d=" M256.455 504C322.724 503.881 382.892 477.767 427.314 435.315L463.029 471.03C478.149 486.149 504 475.441 504 454.059V320C504 306.745 493.255 296 480 296H345.941C324.559 296 313.851 321.851 328.97 336.971L370.72 378.721C339.856 407.62 299.919 423.628 257.49 423.9940000000001C165.092 424.7920000000001 87.207 350.017 88.0059999999999 254.552C88.764 163.991 162.184 88 256 88C297.127 88 335.997 102.678 366.629 129.556C371.372 133.717 378.5350000000001 133.464 382.997 129.003L422.659 89.341C427.531 84.469 427.29 76.526 422.177 71.908C378.202 32.187 319.926 8 256 8C119.034 8 8.001 119.033 8 255.998C7.999 392.807 119.646 504.245 256.455 504z" />
    <glyph glyph-name="server-solid"
      unicode="&#xF136;"
      horiz-adv-x="512" d=" M480 352H32C14.327 352 0 366.327 0 384V448C0 465.673 14.327 480 32 480H480C497.673 480 512 465.673 512 448V384C512 366.327 497.673 352 480 352zM432 440C418.745 440 408 429.255 408 416S418.745 392 432 392S456 402.745 456 416S445.255 440 432 440zM368 440C354.745 440 344 429.255 344 416S354.745 392 368 392S392 402.745 392 416S381.255 440 368 440zM480 192H32C14.327 192 0 206.327 0 224V288C0 305.673 14.327 320 32 320H480C497.673 320 512 305.673 512 288V224C512 206.327 497.673 192 480 192zM432 280C418.745 280 408 269.255 408 256S418.745 232 432 232S456 242.745 456 256S445.255 280 432 280zM368 280C354.745 280 344 269.255 344 256S354.745 232 368 232S392 242.745 392 256S381.255 280 368 280zM480 32H32C14.327 32 0 46.327 0 64V128C0 145.673 14.327 160 32 160H480C497.673 160 512 145.673 512 128V64C512 46.327 497.673 32 480 32zM432 120C418.745 120 408 109.255 408 96S418.745 72 432 72S456 82.745 456 96S445.255 120 432 120zM368 120C354.745 120 344 109.255 344 96S354.745 72 368 72S392 82.745 392 96S381.255 120 368 120z" />
    <glyph glyph-name="sliders-h"
      unicode="&#xF137;"
      horiz-adv-x="512" d=" M496 128H160V144C160 152.8 152.8 160 144 160H112C103.2 160 96 152.8 96 144V128H16C7.2 128 0 120.8 0 112V80C0 71.2 7.2 64 16 64H96V48C96 39.2 103.2 32 112 32H144C152.8 32 160 39.2 160 48V64H496C504.8 64 512 71.2 512 80V112C512 120.8 504.8 128 496 128zM496 288H416V304C416 312.8 408.8 320 400 320H368C359.2 320 352 312.8 352 304V288H16C7.2 288 0 280.8 0 272V240C0 231.2 7.2 224 16 224H352V208C352 199.2 359.2 192 368 192H400C408.8 192 416 199.2 416 208V224H496C504.8 224 512 231.2 512 240V272C512 280.8 504.8 288 496 288zM496 448H288V464C288 472.8 280.8 480 272 480H240C231.2 480 224 472.8 224 464V448H16C7.2 448 0 440.8 0 432V400C0 391.2 7.2 384 16 384H224V368C224 359.2 231.2 352 240 352H272C280.8 352 288 359.2 288 368V384H496C504.8 384 512 391.2 512 400V432C512 440.8 504.8 448 496 448z" />
    <glyph glyph-name="snowflake"
      unicode="&#xF138;"
      horiz-adv-x="448" d=" M440.1 156.8L400.9000000000001 179.8L435.0000000000001 189.1C443.4000000000001 191.4 448.4000000000001 200.2000000000001 446.1000000000001 208.7000000000001L442.0000000000001 224.2000000000001C439.8000000000001 232.7000000000001 431.1000000000001 237.8000000000001 422.7000000000001 235.5000000000001L343 213.8L271.2 256L343.1 298.2L422.8 276.5C431.2 274.2 439.8 279.3 442.1 287.8L446.2000000000001 303.3C448.4000000000001 311.8 443.5000000000001 320.6 435.1 322.9L401 332.2000000000001L440.2 355.2000000000001C447.7 359.6 450.3 369.4 446 377.1L438.1 391C433.8 398.7000000000001 424.1 401.3 416.6 396.9000000000001L377.4000000000001 373.9000000000001L386.5000000000001 408.6C388.7000000000001 417.1 383.8000000000001 425.9000000000001 375.4000000000001 428.2000000000001L360.2000000000001 432.3000000000001C351.8000000000001 434.6 343.2000000000001 429.5000000000001 340.9000000000001 421.0000000000001L319.6 340.0000000000001L247.7 297.8000000000001V382.3000000000001L306 441.6C312.1 447.8 312.1 458 306 464.2L294.9 475.5C288.8 481.7 278.8 481.7 272.7 475.5L247.8 450.1V496C247.8 504.8 240.8 512 232.1 512H216.4C207.7 512 200.7 504.8 200.7 496V449.9L175.8 475.3C169.7 481.5 159.7 481.5 153.6 475.3L142.1 464C136 457.8 136 447.6 142.1 441.4L200.4 382.1V297.6L128.5 339.8L107.2 420.8C105 429.3 96.3 434.4 87.9 432.1L72.7 428C64.3 425.7 59.3 416.9 61.6 408.4L70.7 373.7L31.5 396.7C24 401.1 14.4 398.5 10 390.8L2.1 376.9C-2.2 369.2 0.3 359.5 7.9 355L47.1 332L13 322.9C4.6 320.6 -0.4 311.8 1.9 303.3L6 287.8C8.2 279.3 16.9 274.2000000000001 25.3 276.5L105 298.2L176.9 256L105 213.8L25.3 235.5C16.9 237.8 8.3 232.7 6 224.2L1.9 208.7C-0.3 200.2 4.6 191.4 13 189.1L47.1 179.8L7.9 156.8C0.4 152.4 -2.2 142.6 2.1 134.9L10 121C14.3 113.3 24 110.7 31.5 115.1L70.7 138.1L61.6 103.4C59.4 94.9 64.3 86.1 72.7 83.8L87.9 79.7C96.3 77.4 104.9 82.5 107.2 91L128.5 172L200.4 214.2V129.7L142.1 70.4C136 64.2 136 54 142.1 47.8L153.2 36.4999999999999C159.3 30.3 169.3 30.3 175.4 36.4999999999999L200.3 61.8999999999999V16C200.3 7.2 207.3 0 216 0H231.7C240.4 0 247.4 7.2 247.4 16V62.1L272.3 36.7C278.4 30.5000000000001 288.4 30.5000000000001 294.5 36.7L305.6 48.0000000000001C311.7 54.2 311.7 64.4 305.6 70.6000000000001L247.3 129.9000000000001V214.4000000000001L319.2 172.2000000000001L340.5 91.2000000000001C342.7 82.7000000000001 351.3999999999999 77.6000000000001 359.8 79.9000000000001L375 84C383.4 86.3 388.4 95.1 386.1 103.6L377 138.3L416.2 115.3C423.7 110.9 433.3 113.5 437.7 121.2L445.6 135.1C450.2 142.6 447.7 152.4 440.1 156.8z" />
    <glyph glyph-name="star"
      unicode="&#xF139;"
      horiz-adv-x="576" d=" M259.3 494.2L194 361.8L47.9 340.5C21.7 336.7 11.2 304.4 30.2 285.9L135.9 182.9L110.9 37.4C106.4 11.1 134.1 -8.6 157.3 3.7L288 72.4L418.7 3.7C441.9 -8.5 469.6 11.1 465.1 37.4L440.1 182.9L545.8 285.9C564.8 304.4 554.3 336.7 528.0999999999999 340.5L382 361.8L316.7 494.2C305 517.8 271.1 518.1 259.3 494.2z" />
    <glyph glyph-name="tag-solid"
      unicode="&#xF13A;"
      horiz-adv-x="448" d=" M0 432V282.5C0 265.5 6.7 249.2 18.7 237.2L194.7 61.2C219.7 36.2 260.2 36.2 285.2 61.2L418.7 194.7C443.7 219.7 443.7 260.2 418.7 285.2L242.7 461.2C230.7 473.2 214.4 479.9 197.4 479.9H48C21.5 480 0 458.5 0 432zM112 400A32 32 0 1 0 112 336A32 32 0 1 0 112 400z" />
    <glyph glyph-name="times-solid"
      unicode="&#xF13B;"
      horiz-adv-x="352" d=" M242.72 256L342.79 356.07C355.07 368.35 355.07 388.26 342.79 400.55L320.55 422.79C308.27 435.07 288.36 435.07 276.07 422.79L176 322.7200000000001L75.93 422.79C63.65 435.07 43.74 435.07 31.45 422.79L9.21 400.55C-3.07 388.27 -3.07 368.36 9.21 356.07L109.28 256L9.21 155.93C-3.07 143.65 -3.07 123.74 9.21 111.45L31.45 89.21C43.73 76.93 63.65 76.93 75.93 89.21L176 189.28L276.07 89.21C288.35 76.93 308.27 76.93 320.55 89.21L342.79 111.45C355.07 123.73 355.07 143.64 342.79 155.93L242.72 256z" />
    <glyph glyph-name="tools-solid"
      unicode="&#xF13C;"
      horiz-adv-x="512" d=" M501.1 116.3L384 233.4C360.9 256.5 326.4 261 298.6 247.3L192 353.9V416L64 512L0 448L96 320H158.1L264.7 213.4C251.1 185.6 255.5 151.1 278.6 128L395.7 10.9C410.3 -3.7 433.8999999999999 -3.7 448.3999999999999 10.9L501.0999999999999 63.6C515.5999999999999 78.2 515.5999999999999 101.8 501.0999999999999 116.3zM331.7 287C360 287 386.6 276 406.6 256L426 236.6C441.8 243.5 456.8 253.1 469.8 266.1C506.9 303.2000000000001 519.5 355.4000000000001 507.7 402.8C505.5 411.8 494.2 414.9 487.6 408.3L413.2 333.9L345.3 345.2000000000001L334 413.1L408.4 487.5C415 494.1 411.8 505.4 402.7 507.7C355.3 519.4 303.1 506.8 266.1 469.8C237.6 441.3 224.2 403.7 224.9 366.2L307 284.1C315.1 286 323.5 287 331.7 287zM227.8 205L171.1 261.7L18.7 109.2C-6.3 84.2 -6.3 43.7 18.7 18.7S84.2 -6.3 109.2 18.7L232.8 142.3C225.2 162.1999999999999 222.9 183.9 227.8 205zM64 40C50.8 40 40 50.8 40 64C40 77.3 50.7 88 64 88S88 77.3 88 64C88 50.8 77.3 40 64 40z" />
    <glyph glyph-name="truck-solid"
      unicode="&#xF13D;"
      horiz-adv-x="640" d=" M624 160H608V268.1C608 280.8 602.9 293 593.9 302L494 401.9C485 410.9 472.8 416 460.1 416H416V464C416 490.5 394.5 512 368 512H48C21.5 512 0 490.5 0 464V144C0 117.5 21.5 96 48 96H64C64 43 107 0 160 0S256 43 256 96H384C384 43 427 0 480 0S576 43 576 96H624C632.8 96 640 103.2 640 112V144C640 152.8 632.8 160 624 160zM160 48C133.5 48 112 69.5 112 96S133.5 144 160 144S208 122.5 208 96S186.5 48 160 48zM480 48C453.5 48 432 69.5 432 96S453.5 144 480 144S528 122.5 528 96S506.5 48 480 48zM560 256H416V368H460.1L560 268.1V256z" />
    <glyph glyph-name="upload-solid"
      unicode="&#xF13E;"
      horiz-adv-x="512" d=" M288 402.7V160C288 142.3 273.7 128 256 128S224 142.3 224 160V402.7L150.6 329.3C138.1 316.8 117.8 316.8 105.3 329.3S92.8 362.1 105.3 374.6L233.3 502.6C245.8 515.1 266.1 515.1 278.6 502.6L406.6 374.6C419.1 362.1 419.1 341.8 406.6 329.3S373.8 316.8 361.3 329.3L288 402.7zM64 160H192C192 124.7 220.7 96 256 96S320 124.7 320 160H448C483.3 160 512 131.3 512 96V64C512 28.7 483.3 0 448 0H64C28.7 0 0 28.7 0 64V96C0 131.3 28.7 160 64 160zM432 56A24 24 0 1 1 432 104A24 24 0 1 1 432 56z" />
    <glyph glyph-name="user-cog-solid"
      unicode="&#xF13F;"
      horiz-adv-x="640" d=" M610.5 138.7C613.1 152.8 613.1 167.2 610.5 181.3L636.3 196.2C639.3 197.9 640.5999999999999 201.4 639.5999999999999 204.7C632.8999999999999 226.3 621.3999999999999 245.9 606.3999999999999 262.1C604.0999999999999 264.6 600.3999999999999 265.2 597.3999999999999 263.5L571.5999999999999 248.6C560.6999999999999 257.9000000000001 548.1999999999999 265.1 534.6999999999999 269.9000000000001V299.7000000000001C534.6999999999999 303.1 532.3 306.1 528.9999999999999 306.8000000000001C506.6999999999999 311.8000000000001 483.9999999999999 311.6 462.7999999999999 306.8000000000001C459.4999999999999 306.1 457.0999999999999 303.1 457.0999999999999 299.7000000000001V269.9000000000001C443.5999999999999 265.1 431.0999999999999 257.9000000000001 420.2 248.6L394.3999999999999 263.5C391.5 265.2000000000001 387.7 264.6 385.3999999999999 262.1C370.3999999999999 245.9000000000001 358.8999999999999 226.3 352.2 204.7000000000001C351.2 201.4 352.5999999999999 197.9 355.5 196.2000000000001L381.3 181.3000000000001C378.7 167.2000000000001 378.7 152.8000000000001 381.3 138.7000000000001L355.5 123.8000000000001C352.5 122.1000000000001 351.2 118.6000000000001 352.2 115.3000000000001C358.8999999999999 93.7000000000001 370.3999999999999 74.2000000000001 385.3999999999999 57.9000000000001C387.7 55.4000000000001 391.3999999999999 54.8000000000001 394.3999999999999 56.5000000000001L420.2 71.4000000000001C431.0999999999999 62.1000000000001 443.5999999999999 54.9000000000001 457.0999999999999 50.1000000000001V20.3000000000001C457.0999999999999 16.9000000000001 459.4999999999999 13.9000000000001 462.7999999999999 13.2C485.0999999999999 8.2 507.7999999999999 8.4 528.9999999999999 13.2C532.2999999999998 13.9 534.6999999999999 16.9 534.6999999999999 20.3000000000001V50.1000000000001C548.1999999999999 54.9000000000001 560.6999999999999 62.1000000000001 571.5999999999999 71.4000000000001L597.3999999999999 56.5000000000001C600.2999999999998 54.8000000000001 604.0999999999999 55.4000000000001 606.3999999999999 57.9000000000001C621.3999999999999 74.1000000000001 632.8999999999999 93.7000000000001 639.5999999999999 115.3000000000001C640.5999999999999 118.6000000000001 639.1999999999999 122.1000000000001 636.3 123.8000000000001L610.5 138.7000000000001zM496 111.5C469.2 111.5 447.5 133.3 447.5 160S469.3 208.5 496 208.5S544.5 186.7 544.5 160S522.8 111.5 496 111.5zM224 256C294.7 256 352 313.3 352 384S294.7 512 224 512S96 454.7 96 384S153.3 256 224 256zM425.2 29.5C422.9 30.7 420.6 32.1 418.4 33.4L410.5 28.8C404.5 25.4 397.7 23.4999999999999 390.9 23.4999999999999C380 23.4999999999999 369.5 28.1 362 36.1C343.7 55.9 329.7 79.9999999999999 321.8 105.6999999999999C316.3 123.3999999999999 323.7 142.0999999999999 339.7 151.3999999999999L347.6 156C347.5 158.6 347.5 161.1999999999999 347.6 163.8L339.7 168.4C323.7 177.6 316.3 196.4 321.8 214.1C322.7 217 324 219.9 325 222.8C321.2 223.1 317.5 224 313.6 224H296.9000000000001C274.7000000000001 213.8 250.0000000000001 208 224 208S173.4 213.8 151.1 224H134.4C60.2 224 0 163.8 0 89.6V48C0 21.5 21.5 0 48 0H400C410.1 0 419.5 3.2 427.2 8.5C426 12.3 425.2 16.2 425.2 20.3V29.5z" />
    <glyph glyph-name="user-solid"
      unicode="&#xF140;"
      horiz-adv-x="448" d=" M224 256C294.7 256 352 313.3 352 384S294.7 512 224 512S96 454.7 96 384S153.3 256 224 256zM313.6 224H296.9000000000001C274.7000000000001 213.8 250.0000000000001 208 224 208S173.4 213.8 151.1 224H134.4C60.2 224 0 163.8 0 89.6V48C0 21.5 21.5 0 48 0H400C426.5 0 448 21.5 448 48V89.6C448 163.8 387.8 224 313.6 224z" />
    <glyph glyph-name="vial-solid"
      unicode="&#xF141;"
      horiz-adv-x="512" d=" M342.6 502.6C330.1 515.1 309.8 515.1 297.3 502.6S284.8 469.8 297.3 457.3L306.7 447.9L28.1 169.4C10.1 151.4 0 127 0 101.5V96C0 43 43 0 96 0H101.5C127 0 151.4 10.1 169.4 28.1L448 306.7L457.4 297.3C469.9 284.8 490.2 284.8 502.7 297.3S515.2 330.1 502.7 342.6L470.7 374.6L374.7 470.6L342.7 502.6zM205.3 256L352 402.7L402.7 352L306.7 256H205.3z" />
  </font>
</defs>
</svg>
